<svg
            width="70"
            height="70"
            viewBox="0 0 124 118"
            fill="none"
            xmlns="http://www.w3.org/2000/svg"
          >
            <path
              d="M83.2609 3.07023V64.4749C83.2609 65.2892 82.9388 66.0701 82.3654 66.6459C81.792 67.2217 81.0144 67.5452 80.2036 67.5452H28.2292C26.6075 67.5452 25.0523 68.1921 23.9056 69.3437C22.7588 70.4952 22.1146 72.0571 22.1146 73.6856H74.0889C74.8998 73.6856 75.6774 74.0091 76.2508 74.5849C76.8241 75.1606 77.1462 75.9416 77.1462 76.7559C77.1462 77.5701 76.8241 78.3511 76.2508 78.9268C75.6774 79.5026 74.8998 79.8261 74.0889 79.8261H19.0573C18.2465 79.8261 17.4688 79.5026 16.8955 78.9268C16.3221 78.3511 16 77.5701 16 76.7559V12.2809C16 9.02383 17.2884 5.90012 19.5819 3.597C21.8753 1.29388 24.9859 0 28.2292 0H80.2036C81.0144 0 81.792 0.32347 82.3654 0.899251C82.9388 1.47503 83.2609 2.25596 83.2609 3.07023Z"
              fill="#122640"
            />
            <path
              d="M123.174 25.2442V86.6489C123.174 87.4631 122.852 88.2441 122.278 88.8199C121.705 89.3956 120.927 89.7191 120.117 89.7191H68.1423C66.5206 89.7191 64.9654 90.366 63.8186 91.5176C62.6719 92.6692 62.0277 94.231 62.0277 95.8596H114.002C114.813 95.8596 115.591 96.183 116.164 96.7588C116.737 97.3346 117.059 98.1155 117.059 98.9298C117.059 99.7441 116.737 100.525 116.164 101.101C115.591 101.677 114.813 102 114.002 102H58.9704C58.1595 102 57.3819 101.677 56.8086 101.101C56.2352 100.525 55.9131 99.7441 55.9131 98.9298V34.4549C55.9131 31.1978 57.2015 28.0741 59.4949 25.771C61.7884 23.4678 64.8989 22.174 68.1423 22.174H120.117C120.927 22.174 121.705 22.4974 122.278 23.0732C122.852 23.649 123.174 24.4299 123.174 25.2442Z"
              fill="#E00086"
            />
            <path
              d="M1 89.5C20.1522 89.5 28.5 81.4425 28.5 62C28.5 81.4425 36.7897 89.5 56 89.5C36.7897 89.5 28.5 97.7897 28.5 117C28.5 97.7897 20.1522 89.5 1 89.5Z"
              fill="#FFF8FA"
              stroke="#DCD9D9"
              stroke-width="1.5"
              stroke-linejoin="round"
            />
          </svg>